<svg width="1005" height="754" viewBox="0 0 1005 754" fill="none" xmlns="http://www.w3.org/2000/svg">
<path opacity="0.18" d="M916.34 534.234C919.23 488.743 881.165 445.941 891.215 401.505C894.909 385.193 904.883 370.842 908.979 354.581C913.501 336.736 910.612 317.786 905.361 300.117C892.918 258.606 868.081 221.894 834.182 194.909C785.439 156.204 721.722 140.948 659.513 137.63C597.303 134.312 535.043 141.802 472.784 143.26C433.388 144.316 393.188 143.009 355.5 155.022C310.953 169.248 273.517 201.62 247.664 240.626C221.81 279.633 206.71 324.924 197.64 370.817C194.172 388.586 191.484 407.009 195.404 424.678C202.539 456.723 229.875 480.373 242.438 510.709C251.231 531.796 252.488 555.346 260.603 576.785C273.995 612.876 305.401 640.071 340.425 655.98C375.449 671.889 414.117 677.972 452.357 682.244C515.839 689.312 579.73 692.041 643.583 690.413C707.677 688.754 752.324 668.622 808.202 640.724C853.653 618.129 912.622 593.272 916.34 534.234Z" fill="#172B4D"/>
<path d="M776.997 613.253C782.65 614.786 788.881 616.948 791.419 622.201C797.323 634.541 778.555 643.287 764.937 644.067C624.773 651.98 484.183 647.438 344.822 630.495C328.968 628.559 311.28 625.468 302.109 612.399C318.34 591.01 349.143 589.201 375.927 589.201C509.617 589.427 646.799 577.715 776.997 613.253Z" fill="url(#paint0_linear)"/>
<path d="M767.55 444.86L718.783 473.386L711.923 471.526C692.602 466.173 638.785 450.741 634.036 442.975C628.132 433.525 606.801 388.988 606.801 388.988L616.851 358.175L628.383 321.707C628.383 321.707 674.06 395.749 682.326 400.5C690.592 405.25 767.55 444.86 767.55 444.86Z" fill="#172B4D"/>
<path d="M449.317 522.547C449.317 522.547 434.091 501.586 415.7 512.041C397.308 522.497 384.193 604.507 405.197 619.738C426.202 634.969 447.206 589.251 447.206 589.251L449.317 522.547Z" fill="#172B4D"/>
<path d="M449.317 522.547C449.317 522.547 434.091 501.586 415.7 512.041C397.308 522.497 384.193 604.507 405.197 619.738C426.202 634.969 447.206 589.251 447.206 589.251L449.317 522.547Z" fill="url(#paint1_linear)"/>
<path d="M505.119 639.166C505.119 639.166 437.759 587.165 435.398 577.715C433.036 568.265 423.589 546.977 434.166 532.801C444.744 518.626 467.256 522.145 467.256 522.145C467.256 522.145 516.903 582.44 505.119 639.166Z" fill="#172B4D"/>
<path d="M505.119 639.166C505.119 639.166 437.759 587.165 435.398 577.715C433.036 568.265 423.589 546.977 434.166 532.801C444.744 518.626 467.256 522.145 467.256 522.145C467.256 522.145 516.903 582.44 505.119 639.166Z" fill="#3F3D56"/>
<path d="M707.25 632.078C695.441 643.916 645.794 643.916 635.166 634.441C624.538 624.965 602.856 622.226 604.062 599.757L610.745 589.905L609.514 589.578L602.931 587.844L598.584 543.031L557.48 554.969L549.741 557.206L545.018 486.632C545.018 486.632 621.021 444.131 650.543 450.063C680.065 455.994 670.643 524.508 671.799 527.976C672.653 530.489 672.904 559.317 675.517 578.72C675.894 581.56 667.377 582.767 667.854 585.104C668.758 589.226 678.783 593.825 680.09 595.333C687.15 603.703 718.958 620.24 707.25 632.078Z" fill="#3F3D56"/>
<path d="M638.358 589.251L609.388 589.603L602.806 587.869L598.459 543.056L557.355 554.969L556.953 554.592L554.867 513.097C554.867 513.097 614.715 490.477 622.705 493.669C630.694 496.861 638.358 589.251 638.358 589.251Z" fill="url(#paint2_linear)"/>
<path d="M605.821 456.22L617.353 483.188L455.498 499.701C439.468 500.757 438.438 470.622 440.247 450.515C440.548 447.298 440.9 444.357 441.302 441.794C446.603 407.562 456.226 361.367 463.915 326.784C469.442 302.128 473.965 283.404 475.497 279.03C480.221 264.83 532.179 263.95 532.179 263.95H532.983C586.273 260.834 628.358 321.707 628.358 321.707L608.082 392.08L596.072 433.676L598.032 438.25L599.841 442.472L605.821 456.22Z" fill="#172B4D"/>
<path d="M497.883 492.614C499.466 489.221 503.335 487.587 506.803 486.355C513.688 483.654 520.294 480.287 526.526 476.302C528.385 474.92 530.467 473.866 532.681 473.186C534.597 472.817 536.574 472.932 538.434 473.52C540.294 474.108 541.979 475.15 543.334 476.553C555.093 488.115 539.641 488.014 530.772 489.12C527.028 489.723 498.939 490.377 497.883 492.614Z" fill="url(#paint3_linear)"/>
<path d="M608.082 392.08L596.097 433.676L598.057 438.225C598.268 439.136 598.579 440.022 598.987 440.864C599.263 441.417 599.539 441.945 599.841 442.472C602.152 446.368 605.62 449.862 605.921 454.285C605.996 454.97 605.996 455.661 605.921 456.346C605.192 461.096 600.896 464.992 597.102 468.134C593.47 471.523 589.2 474.155 584.54 475.875C577.203 477.986 569.163 475.347 563.058 470.848C557.192 465.933 552.109 460.153 547.983 453.707C545.169 449.761 542.229 445.438 542.229 440.587C542.338 438.143 542.901 435.739 543.887 433.5C549.314 419.45 559.339 407.738 569.188 396.328L605.117 354.606C605.647 353.782 606.343 353.076 607.161 352.535C607.978 351.995 608.9 351.63 609.866 351.465C612.378 351.465 614.212 353.978 615.469 356.114L616.7 358.301L606.65 389.114C606.65 389.114 607.177 390.069 608.082 392.08Z" fill="url(#paint4_linear)"/>
<path d="M711.873 471.501C692.552 466.148 638.734 450.716 633.985 442.975C628.081 433.525 606.75 388.989 606.75 388.989L616.8 358.175L648.357 413.091C652.955 421.084 657.678 429.252 664.839 435.033C669.847 438.74 675.3 441.805 681.07 444.156C686.547 446.745 724.159 459.764 711.873 471.501Z" fill="url(#paint5_linear)"/>
<path d="M543.787 484.746C520.471 454.385 456.201 462.654 455.071 463.81C450.498 468.837 457.583 483.666 458.99 490.2C459.643 493.04 471.05 495.453 469.995 498.167L455.473 499.65C436.981 500.882 438.438 460.116 441.277 441.718C444.769 419.098 450.196 391.1 455.699 364.76C456.478 363.805 457.282 362.9 458.211 361.995C464.291 355.611 478.311 347.594 487.457 351.665C499.793 357.094 491.1 370.415 488.035 380.644C487.025 383.26 486.604 386.066 486.803 388.863C487.565 392.198 489.244 395.254 491.653 397.684C499.264 406.671 507.956 414.682 517.531 421.536C523.486 425.783 529.968 429.78 533.863 435.963C542.782 450.238 534.943 470.471 543.787 484.746Z" fill="url(#paint6_linear)"/>
<path d="M738.656 437.32L820.916 480.046C823.034 483.881 823.558 488.396 822.373 492.613C820.112 498.746 812.499 511.237 801.243 509.025C789.987 506.813 719.185 468.812 719.185 468.812L738.656 437.32Z" fill="#172B4D"/>
<path d="M738.656 437.32L820.916 480.046C823.034 483.881 823.558 488.396 822.373 492.613C820.112 498.746 812.499 511.237 801.243 509.025C789.987 506.813 719.185 468.812 719.185 468.812L738.656 437.32Z" fill="url(#paint7_linear)"/>
<path d="M562.354 316.303C558.405 317.148 554.283 316.513 550.771 314.519C538.51 308.512 530.898 294.99 530.144 281.368C529.39 267.746 534.867 254.249 543.309 243.668C543.967 242.573 544.861 241.64 545.926 240.935C546.992 240.231 548.2 239.773 549.465 239.596C550.68 239.796 551.84 240.248 552.87 240.923C553.9 241.598 554.777 242.482 555.445 243.517C565.043 255.003 580.947 273.928 583.233 289.235C584.389 297.126 580.092 297.755 574.942 303.938C571.223 308.411 568.61 314.519 562.354 316.303Z" fill="url(#paint8_linear)"/>
<path d="M548.962 271.44C548.962 271.44 547.907 308.738 555.269 315.574C562.63 322.41 568.912 309.266 568.912 309.266L586.775 289.812L548.962 271.44Z" fill="url(#paint9_linear)"/>
<path d="M655.694 283.579C650.681 289.472 644.959 294.723 638.659 299.212C625.454 307.613 609.674 310.993 594.188 308.738C581.842 307.504 570.218 302.342 561.023 294.01C550.244 283.63 545.169 268.348 544.616 253.344C544.063 238.339 547.732 223.561 552.154 209.26C555.115 198.542 559.59 188.301 565.445 178.849C583.484 151.73 618.207 140.52 650.87 139.54C667 139.037 684.135 140.897 697.225 150.398C706.748 157.284 714.687 170.806 712.954 183.071C711.597 192.672 703.934 202.625 700.567 211.773C690.33 238.355 675.098 262.73 655.694 283.579Z" fill="url(#paint10_linear)"/>
<path d="M717.3 207.551C715.59 212.059 713.031 216.197 709.763 219.741C706.146 223.453 701.438 225.911 696.326 226.757C691.213 227.603 685.965 226.791 681.346 224.441C674.462 220.746 669.487 213.985 663.382 208.984C650.568 198.478 631.875 196.744 618.509 206.319C614.69 209.059 611.122 212.703 606.625 213.307C600.946 214.086 595.419 209.788 589.791 210.793C584.54 211.748 580.897 216.951 578.233 222.053C575.57 227.155 573.058 232.76 568.384 235.625L570.068 221.701C570.895 217.553 570.895 213.282 570.068 209.134C568.987 205.138 565.847 201.469 562.053 201.469C558.259 201.469 555.018 205.113 553.711 209.009C552.713 213.127 552.157 217.339 552.053 221.575C551.792 226.743 550.143 231.744 547.279 236.052C544.289 240.099 548.762 247.614 544.164 246.407C539.566 245.201 526.576 235.047 524.441 229.92C517.481 212.829 519.793 192.949 523.461 174.626C525.951 159.813 530.299 145.374 536.4 131.648C542.908 118.177 552.329 106.012 564.49 98.7237C574.992 92.5233 587.163 89.7474 599.313 90.7816C604.219 91.175 609.065 92.1193 613.76 93.5965C615.613 94.3008 617.545 94.7736 619.514 95.004C622.523 94.8834 625.489 94.2457 628.282 93.119C646.347 87.6148 665.643 93.32 683.08 100.961C692.426 105.082 701.848 109.983 708.607 118.227C718.355 130.14 720.34 146.226 720.717 161.632C721.195 177.492 723.456 192.496 717.3 207.551Z" fill="#3F3D56"/>
<path d="M735.365 349.353C703.657 329.02 645.342 344.327 602.805 385.018C573.937 412.664 559.515 444.885 561.852 470.471C560.847 469.843 559.867 469.139 558.912 468.435C527.958 445.136 538.435 392.281 582.303 350.308C626.172 308.336 686.848 293.356 717.978 316.68C723.041 320.567 727.213 325.495 730.212 331.131C733.211 336.767 734.968 342.981 735.365 349.353Z" fill="#172B4D"/>
<path d="M735.365 349.353C703.657 329.02 645.342 344.327 602.805 385.018C573.937 412.664 559.515 444.885 561.852 470.471C560.847 469.843 559.867 469.139 558.912 468.435C527.958 445.136 538.435 392.281 582.303 350.308C626.172 308.336 686.848 293.356 717.978 316.68C723.041 320.567 727.213 325.495 730.212 331.131C733.211 336.767 734.968 342.981 735.365 349.353Z" fill="url(#paint11_linear)"/>
<path d="M616.549 519.531C600.619 519.531 586.675 515.434 576.047 507.417C570.318 503.099 565.589 497.594 562.185 491.278C558.78 484.962 556.781 477.984 556.324 470.823C553.812 442.472 569.665 408.869 599.037 380.845C643.231 338.672 704.562 322.712 738.48 344.528C739.607 345.225 740.698 345.98 741.747 346.79C747.752 351.332 752.661 357.166 756.109 363.862C759.558 370.557 761.459 377.941 761.671 385.47C763.304 413.343 747.299 446.167 718.958 473.437C697.998 493.88 672.138 508.592 643.86 516.163C634.928 518.402 625.756 519.533 616.549 519.531ZM701.119 345.91C692.153 345.992 683.235 347.234 674.587 349.605C649.086 356.938 625.786 370.448 606.75 388.938C580.318 414.197 565.294 445.162 567.53 469.767C567.851 475.37 569.388 480.836 572.035 485.784C574.681 490.732 578.374 495.044 582.856 498.419C611.674 520.109 669.211 505.23 711.119 465.218C737.199 440.311 751.922 410.729 750.49 386.123C750.35 380.219 748.887 374.421 746.208 369.158C743.529 363.894 739.704 359.299 735.013 355.712C734.207 355.089 733.369 354.51 732.501 353.978C723.023 348.35 712.135 345.551 701.119 345.91Z" fill="#172B4D"/>
<g opacity="0.69">
<path opacity="0.69" d="M761.545 385.52C761.34 377.989 759.445 370.601 756.001 363.901C752.556 357.202 747.651 351.362 741.646 346.815C740.516 345.96 739.435 345.232 738.38 344.578C704.386 322.737 643.131 338.697 598.936 380.871C569.64 408.869 553.711 442.523 556.224 470.873C556.715 478.023 558.729 484.985 562.131 491.292C565.533 497.599 570.243 503.105 575.947 507.442C578.929 509.688 582.137 511.617 585.519 513.198C595.242 517.577 605.813 519.749 616.473 519.556C625.619 519.482 634.722 518.301 643.583 516.038C657.36 512.557 670.597 507.213 682.929 500.153C695.913 492.73 707.938 483.741 718.732 473.386C738.455 454.511 752.274 432.897 758.254 412.111C760.869 403.502 761.982 394.507 761.545 385.52ZM711.019 465.268C669.135 505.18 611.599 520.26 582.756 498.469C578.274 495.088 574.582 490.771 571.936 485.819C569.289 480.867 567.752 475.398 567.429 469.792C565.193 445.212 580.218 414.248 606.675 388.989C625.712 370.5 649.012 356.99 674.512 349.655C683.16 347.284 692.078 346.043 701.044 345.96C712.051 345.599 722.928 348.418 732.375 354.078C733.252 354.598 734.091 355.177 734.888 355.813C739.578 359.4 743.404 363.995 746.082 369.258C748.761 374.522 750.224 380.319 750.365 386.224C751.847 410.779 737.124 440.361 711.044 465.268H711.019Z" fill="url(#paint12_linear)"/>
</g>
<path d="M748.656 446.091C748.023 450.479 746.295 454.637 743.631 458.18C739.662 462.805 733.029 464.212 728.556 468.234C727.926 468.768 727.413 469.427 727.049 470.169C726.774 471.398 726.934 472.684 727.503 473.807C728.071 474.93 729.012 475.821 730.164 476.327C732.096 477.39 734.308 477.834 736.5 477.6C738.693 477.367 740.761 476.466 742.425 475.02C740.702 475.756 739.024 476.596 737.4 477.533C736.697 477.986 735.893 478.538 735.817 479.393C735.742 480.248 736.672 481.102 737.526 481.554C739.947 482.796 742.692 483.264 745.387 482.895C748.083 482.527 750.601 481.339 752.601 479.494L748.104 482.007C747.174 482.56 746.144 483.339 746.295 484.395C746.445 485.45 747.149 485.701 747.877 486.053C750.253 487.144 752.909 487.466 755.476 486.975C758.043 486.484 760.393 485.204 762.199 483.314L753.003 488.743C753.872 489.872 755.035 490.741 756.364 491.255C757.693 491.769 759.138 491.908 760.54 491.658C763.378 491.063 766.032 489.796 768.279 487.963C773.107 484.469 777.348 480.227 780.841 475.397C785.012 469.566 788.102 462.076 785.866 455.29C783.63 448.504 776.294 444.307 769.661 441.065C764.817 438.311 759.499 436.495 753.983 435.711C751.093 435.485 750.063 435.234 749.435 437.848C748.807 440.461 749.234 443.452 748.656 446.091Z" fill="url(#paint13_linear)"/>
<path d="M526.35 414.7L523.134 455.215C523.134 455.215 459.618 452.124 440.222 450.616C437.935 450.44 436.277 450.289 435.398 450.163C434.024 449.895 432.748 449.261 431.704 448.329C423.765 441.97 414.443 420.054 416.479 394.619C418.84 365.037 475.547 279.181 475.547 279.181C480.41 282.174 484.92 285.706 488.989 289.712C516.979 317.585 500.346 352.068 500.346 352.068C500.346 352.068 470.774 382.806 475.547 393.437C480.321 404.069 526.35 414.7 526.35 414.7Z" fill="#172B4D"/>
<path d="M514.215 640.397C511.145 640.34 508.093 639.927 505.119 639.166L504.516 638.99C466.829 628.233 455.498 499.701 455.498 499.701H455.749L483.638 495.629L544.792 486.707L555.897 518.676C555.897 518.676 565.445 640.623 514.215 640.397Z" fill="#3F3D56"/>
<path d="M451.704 481.781L451.126 481.58C451.126 481.58 451.302 481.228 451.704 481.781Z" fill="url(#paint14_linear)"/>
<path d="M519.667 639.166C517.919 639.839 516.082 640.254 514.215 640.397C510.918 640.722 507.591 640.248 504.516 639.015C500.395 637.236 496.897 634.27 494.466 630.495C484.215 615.415 466.125 582.44 459.819 529.66C458.211 516.314 456.879 506.663 455.749 499.65L483.638 495.579C487.08 505.331 497.808 536.898 499.115 554.089C500.697 574.573 487.306 611.62 505.421 622.628C523.536 633.636 519.667 639.166 519.667 639.166Z" fill="url(#paint15_linear)"/>
<path d="M533.084 264.051C533.071 268.759 531.388 273.31 528.335 276.894C521.35 283.956 502.708 285.515 493.361 288.229C491.904 288.631 490.447 289.084 489.014 289.611C487.353 290.205 485.793 291.053 484.391 292.125C481.638 294.57 479.429 297.567 477.909 300.921L463.99 326.733L444.292 363.277C436.754 377.377 428.966 392.03 427.936 408.015C427.081 421.461 431.051 434.782 431.629 448.228C423.715 441.869 414.368 419.953 416.403 394.518C418.765 364.936 475.497 279.08 475.497 279.08C480.196 264.88 532.179 264 532.179 264L533.084 264.051Z" fill="url(#paint16_linear)"/>
<path d="M707.25 632.078C695.441 643.916 645.794 643.916 635.166 634.441C624.538 624.965 602.855 622.226 604.061 599.757L610.745 589.905C610.745 589.905 652.653 592.141 667.854 585.179C668.733 589.301 678.758 593.901 680.065 595.409C687.15 603.703 718.958 620.24 707.25 632.078Z" fill="url(#paint17_linear)"/>
<path d="M711.019 465.268C669.111 505.18 611.599 520.26 582.756 498.469C578.275 495.088 574.583 490.771 571.936 485.819C569.29 480.867 567.752 475.398 567.43 469.792C567.43 469.792 584.263 506.763 661.447 461.875C738.631 416.987 732.375 354.028 732.375 354.028C733.252 354.547 734.091 355.127 734.888 355.762C739.574 359.353 743.397 363.949 746.075 369.211C748.754 374.474 750.219 380.27 750.365 386.174C751.822 410.779 737.099 440.361 711.019 465.268Z" fill="#172B4D"/>
<path d="M711.019 465.268C669.111 505.18 611.599 520.26 582.756 498.469C578.275 495.088 574.583 490.771 571.936 485.819C569.29 480.867 567.752 475.398 567.43 469.792C567.43 469.792 584.263 506.763 661.447 461.875C738.631 416.987 732.375 354.028 732.375 354.028C733.252 354.547 734.091 355.127 734.888 355.762C739.574 359.353 743.397 363.949 746.075 369.211C748.754 374.474 750.219 380.27 750.365 386.174C751.822 410.779 737.099 440.361 711.019 465.268Z" fill="url(#paint18_linear)"/>
<g opacity="0.69">
<path opacity="0.69" d="M710.642 464.967C668.733 504.954 611.197 519.858 582.353 498.143C577.872 494.761 574.18 490.444 571.534 485.492C568.887 480.54 567.349 475.072 567.027 469.466C564.791 444.885 579.816 413.921 606.272 388.662C625.308 370.171 648.608 356.66 674.11 349.328C682.749 346.956 691.659 345.714 700.617 345.634C711.605 345.295 722.46 348.112 731.897 353.752C732.769 354.289 733.608 354.876 734.41 355.511C739.101 359.098 742.926 363.693 745.605 368.957C748.284 374.22 749.747 380.018 749.887 385.923C751.445 410.402 736.722 439.959 710.642 464.967Z" fill="url(#paint19_linear)"/>
</g>
<path d="M686.648 346.589L564.59 467.48C564.59 467.48 567.731 490.326 574.816 487.964L715.516 348.046C705.971 346.547 696.295 346.059 686.648 346.589Z" fill="url(#paint20_linear)"/>
<path d="M722.702 320.249L754.812 361.216C754.812 361.216 724.31 319.645 652.553 346.136L626.021 319.545C626.021 319.545 686.07 287.55 722.702 320.249Z" fill="#172B4D"/>
<path d="M722.702 320.249L754.812 361.216C754.812 361.216 724.31 319.645 652.553 346.136L626.021 319.545C626.021 319.545 686.07 287.55 722.702 320.249Z" fill="url(#paint21_linear)"/>
<path d="M548.058 395.976C549.256 398.031 549.974 400.331 550.156 402.703C550.339 405.076 549.982 407.459 549.113 409.673C547.337 414.065 545.281 418.338 542.958 422.466C541.344 425.132 540.763 428.298 541.324 431.363C542.033 433.257 543.148 434.973 544.591 436.39C549.616 442.12 555.771 448.278 563.46 448.379C566.223 448.379 570.143 448.379 570.344 451.244C570.314 452.277 569.902 453.262 569.188 454.008C567.617 455.958 565.647 457.549 563.411 458.676C561.175 459.803 558.725 460.44 556.224 460.543H569.213C569.666 460.474 570.128 460.511 570.564 460.65C571 460.79 571.397 461.028 571.726 461.347C571.9 461.712 571.99 462.112 571.99 462.516C571.99 462.92 571.9 463.32 571.726 463.685C570.82 466.648 569.201 469.344 567.011 471.535C564.82 473.726 562.126 475.346 559.163 476.251C561.592 476.144 563.974 475.554 566.173 474.517C566.932 475.398 567.454 476.457 567.69 477.596C567.925 478.734 567.867 479.914 567.52 481.023C567.173 482.133 566.548 483.136 565.706 483.937C564.864 484.738 563.831 485.311 562.706 485.601C564.389 484.545 566.776 483.515 568.158 484.948C569.54 486.38 568.485 488.642 567.078 489.974C561.048 495.705 550.621 492.814 544.741 486.883C538.862 480.951 535.822 472.884 530.973 466.072C528.46 462.453 525.295 459.186 523.033 455.366C507.984 429.604 532.958 412.538 548.058 395.976Z" fill="url(#paint22_linear)"/>
<path d="M765.188 647.962V637.482C761.369 636.451 757.651 635.672 754.108 634.44C747.134 632.239 741.117 627.727 737.048 621.648C733.66 616.358 731.912 610.185 732.023 603.904H752.475C753.43 611.443 757.123 616.948 765.038 618.983V591.337C760.917 590.105 756.822 589.025 752.777 587.743C748.329 586.466 744.253 584.139 740.893 580.957C737.394 577.457 735.083 572.947 734.285 568.063C733.083 562.126 733.526 555.973 735.566 550.269C737.068 546.174 739.454 542.46 742.555 539.393C745.655 536.326 749.395 533.981 753.505 532.525C756.901 531.429 760.357 530.531 763.857 529.836L765.088 529.609V515.66H784.208V528.906C784.208 529.886 784.509 530.137 785.439 530.389C791.98 531.633 798.11 534.483 803.278 538.683C808.67 543.191 812.241 549.506 813.328 556.452C813.654 558.337 813.805 560.272 814.056 562.283H793.429C793.367 559.451 792.481 556.7 790.879 554.365C789.276 552.03 787.028 550.213 784.409 549.138V575L786.645 575.553C792.265 576.645 797.737 578.391 802.951 580.756C806.87 582.457 810.253 585.191 812.74 588.666C815.227 592.141 816.724 596.226 817.071 600.485C818.285 608.441 816.347 616.557 811.67 623.105C807.85 628.438 802.455 632.438 796.243 634.541C792.424 635.848 788.429 636.753 784.308 637.884V647.937L765.188 647.962ZM784.409 595.182V619.31C787.504 618.844 790.418 617.56 792.851 615.59C797.298 611.896 798.856 602.873 792.348 598.902C789.778 597.535 787.127 596.326 784.409 595.283V595.182ZM765.038 570.526V547.178C762.531 548.276 760.09 549.518 757.726 550.897C752.425 554.441 751.571 564.268 758.354 567.712C760.44 568.792 762.676 569.546 765.012 570.476L765.038 570.526Z" fill="#172B4D"/>
<path d="M765.188 647.962V637.482C761.369 636.451 757.651 635.672 754.108 634.44C747.134 632.239 741.117 627.727 737.048 621.648C733.66 616.358 731.912 610.185 732.023 603.904H752.475C753.43 611.443 757.123 616.948 765.038 618.983V591.337C760.917 590.105 756.822 589.025 752.777 587.743C748.329 586.466 744.253 584.139 740.893 580.957C737.394 577.457 735.083 572.947 734.285 568.063C733.083 562.126 733.526 555.973 735.566 550.269C737.068 546.174 739.454 542.46 742.555 539.393C745.655 536.326 749.395 533.981 753.505 532.525C756.901 531.429 760.357 530.531 763.857 529.836L765.088 529.609V515.66H784.208V528.906C784.208 529.886 784.509 530.137 785.439 530.389C791.98 531.633 798.11 534.483 803.278 538.683C808.67 543.191 812.241 549.506 813.328 556.452C813.654 558.337 813.805 560.272 814.056 562.283H793.429C793.367 559.451 792.481 556.7 790.879 554.365C789.276 552.03 787.028 550.213 784.409 549.138V575L786.645 575.553C792.265 576.645 797.737 578.391 802.951 580.756C806.87 582.457 810.253 585.191 812.74 588.666C815.227 592.141 816.724 596.226 817.071 600.485C818.285 608.441 816.347 616.557 811.67 623.105C807.85 628.438 802.455 632.438 796.243 634.541C792.424 635.848 788.429 636.753 784.308 637.884V647.937L765.188 647.962ZM784.409 595.182V619.31C787.504 618.844 790.418 617.56 792.851 615.59C797.298 611.896 798.856 602.873 792.348 598.902C789.778 597.535 787.127 596.326 784.409 595.283V595.182ZM765.038 570.526V547.178C762.531 548.276 760.09 549.518 757.726 550.897C752.425 554.441 751.571 564.268 758.354 567.712C760.44 568.792 762.676 569.546 765.012 570.476L765.038 570.526Z" fill="url(#paint23_linear)"/>
<path d="M752.199 648.44V637.884C748.38 636.854 744.661 636.049 741.094 634.843C734.115 632.636 728.092 628.126 724.009 622.05C720.612 616.764 718.863 610.588 718.984 604.306H739.435C740.365 611.846 744.058 617.35 751.998 619.386V591.664C747.902 590.432 743.807 589.352 739.762 588.07C735.314 586.793 731.238 584.466 727.878 581.284C724.366 577.804 722.052 573.298 721.27 568.415C720.039 562.475 720.465 556.31 722.501 550.596C723.989 546.487 726.37 542.759 729.472 539.682C732.574 536.605 736.32 534.255 740.44 532.802C743.835 531.702 747.291 530.804 750.792 530.112L752.023 529.861V516.038H771.143V529.283C771.143 530.263 771.445 530.514 772.374 530.766C778.914 532.029 785.041 534.887 790.213 539.085C795.616 543.585 799.19 549.904 800.263 556.854C800.59 558.764 800.74 560.674 800.992 562.685H780.314C780.26 559.849 779.381 557.089 777.783 554.746C776.186 552.402 773.939 550.575 771.319 549.49V575.377C771.997 575.553 772.751 575.754 773.53 575.905C779.149 577.01 784.621 578.764 789.836 581.133C793.758 582.827 797.145 585.555 799.637 589.025C802.128 592.496 803.63 596.579 803.981 600.837C805.204 608.794 803.265 616.913 798.58 623.457C794.762 628.786 789.364 632.778 783.153 634.868C779.309 636.2 775.314 637.08 771.193 638.211V648.44H752.199ZM771.394 595.66V619.788C774.494 619.327 777.415 618.052 779.861 616.093C784.283 612.374 785.841 603.351 779.359 599.38C776.78 597.983 774.121 596.741 771.394 595.66ZM752.123 571.029V547.731C749.613 548.811 747.171 550.044 744.812 551.425C739.511 554.969 738.656 564.796 745.44 568.24C747.551 569.245 749.787 569.999 752.123 570.954V571.029Z" fill="#172B4D"/>
<path d="M852.347 573.92V568.013C850.236 567.435 848.151 567.008 846.191 566.304C842.301 565.071 838.945 562.554 836.669 559.166C834.786 556.204 833.833 552.747 833.93 549.239H845.437C845.522 551.222 846.253 553.124 847.518 554.653C848.784 556.182 850.515 557.255 852.447 557.709V542.176C850.161 541.523 847.874 540.945 845.613 540.166C843.122 539.466 840.837 538.172 838.955 536.396C836.999 534.437 835.708 531.914 835.262 529.182C834.564 525.829 834.817 522.347 835.99 519.129C836.811 516.81 838.14 514.704 839.878 512.965C841.617 511.226 843.722 509.897 846.04 509.076C847.94 508.476 849.869 507.973 851.819 507.568L852.523 507.442V499.676H863.025V507.216C863.025 507.744 863.176 507.92 863.703 508.045C867.39 508.729 870.845 510.328 873.753 512.695C876.815 515.235 878.836 518.813 879.431 522.748C879.607 523.829 879.683 524.884 879.833 526.015H868.201C868.178 524.427 867.689 522.88 866.796 521.567C865.903 520.254 864.644 519.231 863.176 518.626V533.103L864.407 533.405C867.552 534.01 870.614 534.988 873.527 536.32C875.717 537.266 877.608 538.79 878.998 540.73C880.388 542.669 881.224 544.95 881.416 547.329C882.024 551.362 881.19 555.481 879.063 558.96C876.935 562.44 873.65 565.058 869.783 566.354C867.648 567.108 865.412 567.586 863.1 568.214V573.894L852.347 573.92ZM863.025 544.463V557.96C864.757 557.681 866.385 556.953 867.748 555.849C868.442 555.276 868.996 554.552 869.367 553.732C869.739 552.912 869.918 552.018 869.891 551.119C869.865 550.219 869.633 549.338 869.213 548.541C868.794 547.745 868.199 547.055 867.472 546.524C866.031 545.751 864.546 545.063 863.025 544.463ZM852.246 530.665V517.747C850.85 518.361 849.49 519.058 848.176 519.833C847.416 520.372 846.801 521.092 846.388 521.928C845.974 522.763 845.774 523.689 845.807 524.621C845.839 525.553 846.103 526.462 846.573 527.267C847.044 528.072 847.707 528.747 848.503 529.233C849.633 529.836 851.015 530.238 852.246 530.791V530.665Z" fill="#172B4D"/>
<path d="M852.347 573.92V568.013C850.236 567.435 848.151 567.008 846.191 566.304C842.301 565.071 838.945 562.554 836.669 559.166C834.786 556.204 833.833 552.747 833.93 549.239H845.437C845.522 551.222 846.253 553.124 847.518 554.653C848.784 556.182 850.515 557.255 852.447 557.709V542.176C850.161 541.523 847.874 540.945 845.613 540.166C843.122 539.466 840.837 538.172 838.955 536.396C836.999 534.437 835.708 531.914 835.262 529.182C834.564 525.829 834.817 522.347 835.99 519.129C836.811 516.81 838.14 514.704 839.878 512.965C841.617 511.226 843.722 509.897 846.04 509.076C847.94 508.476 849.869 507.973 851.819 507.568L852.523 507.442V499.676H863.025V507.216C863.025 507.744 863.176 507.92 863.703 508.045C867.39 508.729 870.845 510.328 873.753 512.695C876.815 515.235 878.836 518.813 879.431 522.748C879.607 523.829 879.683 524.884 879.833 526.015H868.201C868.178 524.427 867.689 522.88 866.796 521.567C865.903 520.254 864.644 519.231 863.176 518.626V533.103L864.407 533.405C867.552 534.01 870.614 534.988 873.527 536.32C875.717 537.266 877.608 538.79 878.998 540.73C880.388 542.669 881.224 544.95 881.416 547.329C882.024 551.362 881.19 555.481 879.063 558.96C876.935 562.44 873.65 565.058 869.783 566.354C867.648 567.108 865.412 567.586 863.1 568.214V573.894L852.347 573.92ZM863.025 544.463V557.96C864.757 557.681 866.385 556.953 867.748 555.849C868.442 555.276 868.996 554.552 869.367 553.732C869.739 552.912 869.918 552.018 869.891 551.119C869.865 550.219 869.633 549.338 869.213 548.541C868.794 547.745 868.199 547.055 867.472 546.524C866.031 545.751 864.546 545.063 863.025 544.463ZM852.246 530.665V517.747C850.85 518.361 849.49 519.058 848.176 519.833C847.416 520.372 846.801 521.092 846.388 521.928C845.974 522.763 845.774 523.689 845.807 524.621C845.839 525.553 846.103 526.462 846.573 527.267C847.044 528.072 847.707 528.747 848.503 529.233C849.633 529.836 851.015 530.238 852.246 530.791V530.665Z" fill="url(#paint24_linear)"/>
<path d="M845.086 574.146V568.24C842.95 567.662 840.89 567.209 838.93 566.531C835.045 565.288 831.691 562.774 829.408 559.393C827.526 556.431 826.572 552.973 826.669 549.465H838.101C838.18 551.446 838.906 553.347 840.167 554.877C841.429 556.406 843.156 557.481 845.086 557.935V542.402C842.8 541.749 840.513 541.121 838.252 540.392C835.765 539.682 833.482 538.39 831.594 536.622C829.652 534.654 828.362 532.135 827.9 529.409C827.202 526.055 827.454 522.573 828.629 519.355C829.461 517.043 830.793 514.942 832.53 513.204C834.268 511.467 836.367 510.134 838.679 509.302C840.576 508.699 842.505 508.204 844.458 507.819L845.161 507.668V500.153H855.865V507.543C855.865 508.095 856.041 508.271 856.568 508.397C860.254 509.082 863.71 510.68 866.618 513.047C869.668 515.544 871.69 519.079 872.296 522.974C872.472 524.03 872.573 525.111 872.698 526.242H861.066C861.043 524.653 860.554 523.107 859.661 521.793C858.768 520.48 857.509 519.457 856.041 518.853V533.329L857.272 533.631C860.417 534.236 863.479 535.215 866.392 536.546C868.579 537.497 870.467 539.022 871.856 540.961C873.246 542.899 874.084 545.178 874.281 547.555C874.948 551.977 873.867 556.484 871.266 560.122C869.125 563.109 866.103 565.35 862.623 566.531C860.488 567.259 858.252 567.762 855.94 568.39V574.071L845.086 574.146ZM855.84 544.69V558.161C857.572 557.901 859.203 557.18 860.563 556.075C861.257 555.502 861.811 554.778 862.182 553.958C862.553 553.139 862.733 552.245 862.706 551.345C862.679 550.446 862.447 549.564 862.028 548.768C861.609 547.971 861.013 547.281 860.287 546.751C858.854 545.977 857.378 545.289 855.865 544.69H855.84ZM845.061 530.866V517.747C843.654 518.356 842.286 519.053 840.966 519.833C840.206 520.374 839.594 521.096 839.182 521.933C838.771 522.769 838.574 523.696 838.609 524.628C838.643 525.559 838.909 526.468 839.382 527.272C839.855 528.076 840.52 528.75 841.317 529.233C842.498 529.811 843.83 530.238 845.061 530.766V530.866Z" fill="#172B4D"/>
<defs>
<linearGradient id="paint0_linear" x1="552.405" y1="459.211" x2="542.926" y2="755.457" gradientUnits="userSpaceOnUse">
<stop offset="0.01"/>
<stop offset="0.13" stop-opacity="0.69"/>
<stop offset="1" stop-opacity="0"/>
</linearGradient>
<linearGradient id="paint1_linear" x1="9619.56" y1="34722.3" x2="13785.8" y2="34320.3" gradientUnits="userSpaceOnUse">
<stop offset="0.01"/>
<stop offset="0.13" stop-opacity="0.69"/>
<stop offset="1" stop-opacity="0"/>
</linearGradient>
<linearGradient id="paint2_linear" x1="18160.5" y1="27852.2" x2="25263" y2="31205.5" gradientUnits="userSpaceOnUse">
<stop offset="0.01"/>
<stop offset="0.13" stop-opacity="0.69"/>
<stop offset="1" stop-opacity="0"/>
</linearGradient>
<linearGradient id="paint3_linear" x1="11921.2" y1="6728.55" x2="11611.9" y2="7574.88" gradientUnits="userSpaceOnUse">
<stop offset="0.01"/>
<stop offset="0.13" stop-opacity="0.69"/>
<stop offset="1" stop-opacity="0"/>
</linearGradient>
<linearGradient id="paint4_linear" x1="18083" y1="45763.1" x2="20097" y2="45389.9" gradientUnits="userSpaceOnUse">
<stop offset="0.01"/>
<stop offset="0.13" stop-opacity="0.69"/>
<stop offset="1" stop-opacity="0"/>
</linearGradient>
<linearGradient id="paint5_linear" x1="27072.2" y1="40641.1" x2="31620.2" y2="41153.4" gradientUnits="userSpaceOnUse">
<stop offset="0.01"/>
<stop offset="0.13" stop-opacity="0.69"/>
<stop offset="1" stop-opacity="0"/>
</linearGradient>
<linearGradient id="paint6_linear" x1="17664.3" y1="54538.6" x2="25035.8" y2="53168.5" gradientUnits="userSpaceOnUse">
<stop offset="0.01"/>
<stop offset="0.13" stop-opacity="0.69"/>
<stop offset="1" stop-opacity="0"/>
</linearGradient>
<linearGradient id="paint7_linear" x1="34162.4" y1="25392.5" x2="32816.5" y2="19237.4" gradientUnits="userSpaceOnUse">
<stop offset="0.01"/>
<stop offset="0.13" stop-opacity="0.69"/>
<stop offset="1" stop-opacity="0"/>
</linearGradient>
<linearGradient id="paint8_linear" x1="530.068" y1="278.1" x2="583.484" y2="278.1" gradientUnits="userSpaceOnUse">
<stop stop-color="#ECC4D7"/>
<stop offset="0.42" stop-color="#EFD4D1"/>
<stop offset="1" stop-color="#F2EAC9"/>
</linearGradient>
<linearGradient id="paint9_linear" x1="9573.77" y1="21245" x2="9411.05" y2="17059.8" gradientUnits="userSpaceOnUse">
<stop offset="0.01"/>
<stop offset="0.13" stop-opacity="0.69"/>
<stop offset="1" stop-opacity="0"/>
</linearGradient>
<linearGradient id="paint10_linear" x1="35012.2" y1="-86342" x2="46757" y2="-87765.1" gradientUnits="userSpaceOnUse">
<stop stop-color="#ECC4D7"/>
<stop offset="0.42" stop-color="#EFD4D1"/>
<stop offset="1" stop-color="#F2EAC9"/>
</linearGradient>
<linearGradient id="paint11_linear" x1="44499.9" y1="61213.7" x2="59516.7" y2="61213.7" gradientUnits="userSpaceOnUse">
<stop offset="0.01"/>
<stop offset="0.13" stop-opacity="0.69"/>
<stop offset="1" stop-opacity="0"/>
</linearGradient>
<linearGradient id="paint12_linear" x1="776.846" y1="353.249" x2="695.677" y2="404.044" gradientUnits="userSpaceOnUse">
<stop offset="0.02" stop-color="white" stop-opacity="0"/>
<stop offset="0.58" stop-color="white" stop-opacity="0.39"/>
<stop offset="0.68" stop-color="white" stop-opacity="0.68"/>
<stop offset="1" stop-color="white"/>
</linearGradient>
<linearGradient id="paint13_linear" x1="18651.8" y1="19514" x2="20068.4" y2="19514" gradientUnits="userSpaceOnUse">
<stop stop-color="#ECC4D7"/>
<stop offset="0.42" stop-color="#EFD4D1"/>
<stop offset="1" stop-color="#F2EAC9"/>
</linearGradient>
<linearGradient id="paint14_linear" x1="561.206" y1="584.967" x2="561.334" y2="584.967" gradientUnits="userSpaceOnUse">
<stop offset="0.01"/>
<stop offset="0.13" stop-opacity="0.69"/>
<stop offset="1" stop-opacity="0"/>
</linearGradient>
<linearGradient id="paint15_linear" x1="11575.5" y1="42937.7" x2="16145.5" y2="43221.9" gradientUnits="userSpaceOnUse">
<stop offset="0.01"/>
<stop offset="0.13" stop-opacity="0.69"/>
<stop offset="1" stop-opacity="0"/>
</linearGradient>
<linearGradient id="paint16_linear" x1="18612.1" y1="72309.8" x2="27479.9" y2="71265" gradientUnits="userSpaceOnUse">
<stop offset="0.01"/>
<stop offset="0.13" stop-opacity="0.69"/>
<stop offset="1" stop-opacity="0"/>
</linearGradient>
<linearGradient id="paint17_linear" x1="29101" y1="16378.7" x2="32541.4" y2="13755.4" gradientUnits="userSpaceOnUse">
<stop offset="0.01"/>
<stop offset="0.13" stop-opacity="0.69"/>
<stop offset="1" stop-opacity="0"/>
</linearGradient>
<linearGradient id="paint18_linear" x1="43906.2" y1="54778.7" x2="57238.4" y2="54778.7" gradientUnits="userSpaceOnUse">
<stop offset="0.01"/>
<stop offset="0.13" stop-opacity="0.69"/>
<stop offset="1" stop-opacity="0"/>
</linearGradient>
<linearGradient id="paint19_linear" x1="48665.4" y1="59604.6" x2="51093.9" y2="56867.3" gradientUnits="userSpaceOnUse">
<stop offset="0.02" stop-color="white" stop-opacity="0"/>
<stop offset="0.58" stop-color="white" stop-opacity="0.39"/>
<stop offset="0.68" stop-color="white" stop-opacity="0.68"/>
<stop offset="1" stop-color="white"/>
</linearGradient>
<linearGradient id="paint20_linear" x1="39704.2" y1="53387.6" x2="42166.3" y2="47707.7" gradientUnits="userSpaceOnUse">
<stop offset="0.02" stop-color="white" stop-opacity="0"/>
<stop offset="0.58" stop-color="white" stop-opacity="0.39"/>
<stop offset="0.68" stop-color="white" stop-opacity="0.68"/>
<stop offset="1" stop-color="white"/>
</linearGradient>
<linearGradient id="paint21_linear" x1="34124.5" y1="22097.7" x2="40726.3" y2="22097.7" gradientUnits="userSpaceOnUse">
<stop offset="0.02" stop-color="white" stop-opacity="0"/>
<stop offset="0.58" stop-color="white" stop-opacity="0.39"/>
<stop offset="0.68" stop-color="white" stop-opacity="0.68"/>
<stop offset="1" stop-color="white"/>
</linearGradient>
<linearGradient id="paint22_linear" x1="12167.3" y1="34106.3" x2="13311.3" y2="34106.3" gradientUnits="userSpaceOnUse">
<stop stop-color="#ECC4D7"/>
<stop offset="0.42" stop-color="#EFD4D1"/>
<stop offset="1" stop-color="#F2EAC9"/>
</linearGradient>
<linearGradient id="paint23_linear" x1="29780.6" y1="39827.8" x2="22911.1" y2="38841.4" gradientUnits="userSpaceOnUse">
<stop offset="0.01"/>
<stop offset="0.13" stop-opacity="0.69"/>
<stop offset="1" stop-color="#545454" stop-opacity="0.48"/>
</linearGradient>
<linearGradient id="paint24_linear" x1="18189.9" y1="23734.3" x2="16044.7" y2="23427.8" gradientUnits="userSpaceOnUse">
<stop offset="0.01" stop-opacity="0.48"/>
<stop offset="0.13" stop-opacity="0.69"/>
<stop offset="1" stop-color="#545454" stop-opacity="0.62"/>
</linearGradient>
</defs>
</svg>