<svg width="89" height="89" viewBox="0 0 89 89" fill="none" xmlns="http://www.w3.org/2000/svg">
<path d="M74.1667 14.8333H14.8334C10.7172 14.8333 7.45383 18.1337 7.45383 22.2499L7.41675 66.7499C7.41675 70.8662 10.7172 74.1666 14.8334 74.1666H74.1667C78.283 74.1666 81.5834 70.8662 81.5834 66.7499V22.2499C81.5834 18.1337 78.283 14.8333 74.1667 14.8333ZM44.5001 37.0833H29.6667V40.7916H40.7917C42.8313 40.7916 44.5001 42.4603 44.5001 44.4999V55.6249C44.5001 57.6645 42.8313 59.3332 40.7917 59.3332H37.0834V63.0416H29.6667V59.3332H22.2501V51.9166H37.0834V48.2082H25.9584C23.9188 48.2082 22.2501 46.5395 22.2501 44.4999V33.3749C22.2501 31.3353 23.9188 29.6666 25.9584 29.6666H29.6667V25.9583H37.0834V29.6666H44.5001V37.0833ZM59.3334 60.2603L51.9167 52.8437H66.7501L59.3334 60.2603ZM51.9167 37.0833L59.3334 29.6666L66.7501 37.0833H51.9167Z" fill="white"/>
</svg>
